# xmcd
#
# Track frame offsets:
#	150
#	15991
#	49156
#
# Disc length: 963 seconds
#
# Revision: 0
# Processed by: cddbd v1.5.2PL0 Copyright (c) Steve Scherf et al.
# Submitted via: audiograbber 1.83.01
#
DISCID=1803c103
DTITLE=Grateful Dead - 73-11-14 San Diego Sports Arena, San Diego CA
DYEAR=1900
DGENRE=
TTITLE0=Me and My Uncle
TTITLE1=GDTRFB
TTITLE2=One More Saturday Night
EXTD=
EXTT0=
EXTT1=
EXTT2=
PLAYORDER=
